<svg width="132" height="199" viewBox="0 0 132 199" fill="none" xmlns="http://www.w3.org/2000/svg">
<path d="M16.2445 79.7997H46.2605V87.1597H27.1245V111.992H46.8365V119.352H16.2445V79.7997ZM51.7005 66.9997H62.5805V89.5277H68.5325V100.088H62.5805V120.632H51.7005V66.9997ZM32 74.3598V70.6798V66.9998L46.2605 66.9997V74.3597L32 74.3598Z" fill="black"/>
<path d="M101.628 84.5357C101.628 86.4984 101.223 88.1624 100.412 89.5277C99.6013 90.8931 98.492 92.0237 97.084 92.9197C95.7187 93.7731 94.1187 94.3917 92.284 94.7757C90.4493 95.1597 88.508 95.3517 86.46 95.3517C84.4547 95.3517 82.5347 95.1597 80.7 94.7757C78.8653 94.3917 77.244 93.7731 75.836 92.9197C74.4707 92.0237 73.3613 90.8931 72.508 89.5277C71.6973 88.1624 71.292 86.4984 71.292 84.5357V77.8157C71.292 75.8531 71.6973 74.1891 72.508 72.8237C73.3613 71.4584 74.4707 70.3491 75.836 69.4957C77.244 68.5997 78.8653 67.9597 80.7 67.5757C82.5347 67.1917 84.4547 66.9997 86.46 66.9997C88.508 66.9997 90.4493 67.1917 92.284 67.5757C94.1187 67.9597 95.7187 68.5997 97.084 69.4957C98.492 70.3491 99.6013 71.4584 100.412 72.8237C101.223 74.1891 101.628 75.8531 101.628 77.8157V84.5357ZM91.068 78.3277C91.068 76.8771 90.6413 75.8317 89.788 75.1917C88.9347 74.5091 87.8253 74.1677 86.46 74.1677C85.0947 74.1677 83.9853 74.5091 83.132 75.1917C82.2787 75.8317 81.852 76.8771 81.852 78.3277V84.0237C81.852 85.4744 82.2787 86.5411 83.132 87.2237C83.9853 87.8637 85.0947 88.1837 86.46 88.1837C87.8253 88.1837 88.9347 87.8637 89.788 87.2237C90.6413 86.5411 91.068 85.4744 91.068 84.0237V78.3277ZM109.948 66.9997H120.828V95.3517H109.948V66.9997ZM120.828 120.632H71.932V100.6H120.828V120.632ZM82.812 113.208H109.948V108.024H82.812V113.208Z" fill="black"/>
<path d="M16.2445 141H45.6205V193.352H16.2445V141ZM47.5405 161.608H54.2605V141H65.1405V194.632H54.2605V172.168H47.5405V161.608ZM27.1245 185.992H34.7405V148.424H27.1245V185.992Z" fill="black"/>
<path d="M99.324 194.632H71.932V174.856H82.812V187.208H99.324V190.92V194.632ZM71.932 162.184C72.956 161.8 74.044 161.288 75.196 160.648C76.348 160.008 77.4147 159.24 78.396 158.344C79.42 157.405 80.252 156.381 80.892 155.272C81.5747 154.12 81.916 152.882 81.916 151.56V141H92.604V151.56C92.604 152.882 92.924 154.12 93.564 155.272C94.2467 156.381 95.0787 157.405 96.06 158.344C97.084 159.24 98.172 160.008 99.324 160.648C100.476 161.288 101.564 161.8 102.588 162.184V171.4C101.393 171.058 100.071 170.589 98.62 169.992C97.1693 169.352 95.74 168.626 94.332 167.816C92.924 167.005 91.58 166.152 90.3 165.256C89.0627 164.317 88.0387 163.357 87.228 162.376C86.4173 163.357 85.3933 164.317 84.156 165.256C82.9187 166.152 81.596 167.005 80.188 167.816C78.78 168.626 77.3507 169.352 75.9 169.992C74.4493 170.589 73.1267 171.058 71.932 171.4V162.184ZM109.948 141H120.828V175.752H109.948V141Z" fill="black"/>
<path d="M7.75549 74.3598H32V70.6798V66.9998H7.75549V63.0677L0.755493 70.6798L7.75549 78.3278V74.3598Z" fill="black"/>
<path d="M126.216 187.208H99.324V190.92V194.632H126.216V198.068L131.716 190.92L126.216 183.068V187.208Z" fill="black"/>
<path d="M44.336 17.536C44.336 19.4986 43.9307 21.1626 43.12 22.5279C42.3093 23.8933 41.2 25.0239 39.792 25.9199C38.4267 26.7733 36.8267 27.3919 34.992 27.7759C33.1573 28.1599 31.216 28.3519 29.168 28.3519C27.1627 28.3519 25.2427 28.1599 23.408 27.7759C21.5733 27.3919 19.952 26.7733 18.544 25.9199C17.1787 25.0239 16.0693 23.8933 15.216 22.5279C14.4053 21.1626 14 19.4986 14 17.536V10.816C14 8.85328 14.4053 7.18929 15.216 5.82396C16.0693 4.45863 17.1787 3.34931 18.544 2.49598C19.952 1.59998 21.5733 0.959997 23.408 0.575996C25.2427 0.191996 27.1627 0 29.168 0C31.216 0 33.1573 0.191996 34.992 0.575996C36.8267 0.959997 38.4267 1.59998 39.792 2.49598C41.2 3.34931 42.3093 4.45863 43.12 5.82396C43.9307 7.18929 44.336 8.85328 44.336 10.816V17.536ZM33.776 11.328C33.776 9.87729 33.3493 8.83197 32.496 8.19197C31.6427 7.5093 30.5333 7.16797 29.168 7.16797C27.8027 7.16797 26.6933 7.5093 25.84 8.19197C24.9867 8.83197 24.56 9.87729 24.56 11.328V17.024C24.56 18.4746 24.9867 19.5413 25.84 20.2239C26.6933 20.8639 27.8027 21.1839 29.168 21.1839C30.5333 21.1839 31.6427 20.8639 32.496 20.2239C33.3493 19.5413 33.776 18.4746 33.776 17.024V11.328ZM64.816 53.6319H14.64V33.8559H25.52V46.2079H64.816V53.6319ZM52.656 0H63.536V34.7519H52.656V0Z" fill="black"/>
<path d="M69.6875 3.83997H80.3115V0H90.9995V3.83997H101.623V11.2H90.9995C91.1275 12.4373 91.5328 13.5893 92.2155 14.656C92.8981 15.7226 93.7301 16.6826 94.7115 17.536C95.6928 18.3893 96.7381 19.1359 97.8475 19.7759C98.9568 20.3733 100.002 20.8426 100.983 21.1839V30.3999C99.7888 30.0586 98.4661 29.5893 97.0155 28.9919C95.5648 28.3519 94.1355 27.6266 92.7275 26.8159C91.3195 26.0053 89.9755 25.1519 88.6955 24.2559C87.4581 23.3173 86.4341 22.3573 85.6235 21.3759C84.8128 22.3573 83.7888 23.3173 82.5515 24.2559C81.3141 25.1519 79.9915 26.0053 78.5835 26.8159C77.1755 27.6266 75.7461 28.3519 74.2955 28.9919C72.8448 29.5893 71.5221 30.0586 70.3275 30.3999V21.1839C71.2661 20.8426 72.2901 20.3733 73.3995 19.7759C74.5515 19.1359 75.5968 18.3893 76.5355 17.536C77.5168 16.6826 78.3488 15.7226 79.0315 14.656C79.7141 13.5893 80.1195 12.4373 80.2475 11.2H69.6875V3.83997ZM120.503 53.6319H70.3275V33.8559H81.2075V46.2079H120.503V53.6319ZM102.903 11.7759H108.343V0H119.223V31.5519H108.343V19.1999H102.903V11.7759Z" fill="black"/>
<path d="M38.0937 19.6648C38.6282 18.7498 38.8954 17.6347 38.8954 16.3194V11.8161C38.8954 10.5008 38.6282 9.38566 38.0937 8.47068C37.5592 7.55571 36.8279 6.81229 35.8996 6.24043C34.9995 5.63998 33.9446 5.21109 32.7351 4.95375C31.5255 4.69642 30.2456 4.56775 28.8954 4.56775C27.5733 4.56775 26.3075 4.69642 25.0979 4.95375C23.8884 5.21109 22.8194 5.63998 21.8912 6.24043C20.991 6.81229 20.2597 7.55571 19.6971 8.47068C19.1626 9.38566 18.8954 10.5008 18.8954 11.8161V16.3194C18.8954 17.6347 19.1626 18.7498 19.6971 19.6648C20.2597 20.5798 20.991 21.3375 21.8912 21.938C22.8194 22.5098 23.8884 22.9244 25.0979 23.1817C26.3075 23.4391 27.5733 23.5677 28.8954 23.5677C30.2456 23.5677 31.5255 23.4391 32.7351 23.1817C33.9446 22.9244 34.9995 22.5098 35.8996 21.938C36.8279 21.3375 37.5592 20.5798 38.0937 19.6648Z" fill="white"/>
<path d="M28.8954 13.0677V8.06775M28.8954 13.5677L24.8954 17.5677" stroke="black"/>
<circle cx="29" cy="13" r="1" fill="black"/>
</svg>
